# xmcd
#
# Track frame offsets:
#	150
#	14018
#	27869
#	43243
#	54992
#	67695
#	80251
#	97740
#	110937
#	124114
#	142006
#	156386
#
# Disc length: 2375 seconds
#
# Revision: 1
# Processed by: cddbd v1.5.2PL0 Copyright (c) Steve Scherf et al.
# Submitted via: audiograbber 1.83.01
#
DISCID=9e09450c
DTITLE=Scooter Lee - Welcome To Scooerville
DYEAR=1900
DGENRE=
TTITLE0=Choo, Choo, Cha Boggie
TTITLE1=Tulane
TTITLE2=Love Lifted Me
TTITLE3=Amazing Grace
TTITLE4=OeeOeeo
TTITLE5=Steppin' Out
TTITLE6=I Love You I Do
TTITLE7=Would You Consider
TTITLE8=This Loves On Me
TTITLE9=Misty Blue
TTITLE10=Let's Break Up Tomorrow
TTITLE11=Over The Rainbow
EXTD=
EXTT0=
EXTT1=
EXTT2=
EXTT3=
EXTT4=
EXTT5=
EXTT6=
EXTT7=
EXTT8=
EXTT9=
EXTT10=
EXTT11=
PLAYORDER=
